<mxfile host="app.diagrams.net" modified="2023-04-21T11:56:28.076Z" agent="Mozilla/5.0 (Macintosh; Intel Mac OS X 10.15; rv:109.0) Gecko/20100101 Firefox/112.0" etag="SOr70RkyTPP28nvkTfkZ" version="21.2.1" type="github">
  <diagram name="Page-1" id="KkK54AJAZAbkAiwjYjyY">
    <mxGraphModel dx="1434" dy="695" grid="0" gridSize="10" guides="1" tooltips="1" connect="1" arrows="1" fold="1" page="0" pageScale="1" pageWidth="850" pageHeight="1100" background="#FF9933" math="0" shadow="0">
      <root>
        <mxCell id="0" />
        <mxCell id="1" parent="0" />
      </root>
    </mxGraphModel>
  </diagram>
</mxfile>
